<?xml version="1.0" encoding="UTF-8"?>
<svg id="Capa_1" xmlns="http://www.w3.org/2000/svg" version="1.1" viewBox="0 0 136.2 37">
  <!-- Generator: Adobe Illustrator 30.2.1, SVG Export Plug-In . SVG Version: 2.1.1 Build 1)  -->
  <defs>
    <style>
      .st0 {
        fill: #fff;
      }
    </style>
  </defs>
  <path class="st0" d="M19.5,36l-2-5.4h-7.7l-2,5.4H2.3L11.8,12.1h4.1l9.5,23.9h-5.8ZM14.4,21.8c-.2-.6-.5-1.4-.7-2.2h0c-.2.8-.5,1.6-.7,2.2l-1.6,4.4h4.7l-1.6-4.4Z"/>
  <path class="st0" d="M26.2,36V15.2c0-1.9,1.5-3.4,3.4-3.4h2.5v24.2h-5.9Z"/>
  <path class="st0" d="M58.6,36.2h-3.7l-3.5-10.7c-.5-1.6-1-3.3-1.6-5.4h0c-.5,2.1-1.1,3.8-1.6,5.4l-3.5,10.7h-3.7l-8.1-24.3h5.7l3.1,9.8c.5,1.5.9,3,1.3,4.8h0c.3-1.8.8-3.3,1.3-4.8l3.2-9.8h5l3.1,9.7c.5,1.4.9,3.1,1.3,4.9h0c.3-1.7.8-3.5,1.3-4.8l3.2-9.8h5.1l-8.1,24.3Z"/>
  <polyline class="st0" points="73 26.2 73 36 67.2 36 67.2 11.9 73 11.9 73 22.1"/>
  <line class="st0" x1="73.1" y1="26.2" x2="73" y2="26.2"/>
  <polyline class="st0" points="74 22.1 81.3 11.9 87.6 11.9 79.2 23.8 88 36 81 36 74 26.2"/>
  <line class="st0" x1="73" y1="22.1" x2="73.1" y2="22.1"/>
  <path class="st0" d="M108.4,36.3l-9.5-10.4c-1.6-1.7-3.3-3.7-4.6-5.3h0c0,1.7.1,3.6.1,5.1v10.3h-5.6V11.9h4.7l8.3,9c1.2,1.3,2.9,3.2,4,4.6h0c0-1.5-.2-3-.2-4.5v-9.1h5.7v24.4h-3Z"/>
  <path class="st0" d="M33.4,6.7s0,0,0,0c-.3,0-.5,0-.8.1-1.5.4-2.6,1.5-2.9,3s0,.6-.1.8c0-.8-.2-1.5-.6-2.1-.8-1.2-1.9-1.7-3.3-1.9s0,0,0,0c1.8,0,3.4-1.3,3.9-3.1s0-.6.1-.9c0,0,0,.5,0,.6.3,1.9,1.9,3.3,3.9,3.4Z"/>
  <path class="st0" d="M28.5,11s0,0,0,0c-.2,0-.4,0-.6,0-1.1.3-2,1.2-2.2,2.3s0,.4,0,.6c0-.6-.2-1.1-.5-1.6-.6-.9-1.4-1.3-2.5-1.4s0,0,0,0c1.4,0,2.6-1,2.9-2.3s0-.4.1-.7c0,0,0,.4,0,.4.2,1.5,1.5,2.5,2.9,2.6Z"/>
  <path class="st0" d="M35.8,3s-.1,0-.2,0c-.6,0-.9.2-1.4.5s-1,1.3-1.1,2.1c0-.5-.2-1-.5-1.4-.5-.8-1.3-1.1-2.2-1.2,1,0,2-.6,2.4-1.5s.2-.8.3-1.1c0,1.4,1.2,2.7,2.7,2.7Z"/>
  <path class="st0" d="M35.4,9s0,0-.1,0c-.4,0-.6.1-.9.3s-.7.8-.7,1.3c0-.3-.1-.6-.3-.9-.3-.5-.8-.7-1.4-.8.6,0,1.3-.4,1.5-1s.2-.5.2-.7c0,.9.8,1.7,1.7,1.7Z"/>
  <path class="st0" d="M133.8,33.2c0,.7-.3,1.4-.8,2-.5.6-1.2.9-2,.9s-1.5-.3-2-.9c-.5-.6-.8-1.2-.8-2s.3-1.4.8-2c.5-.6,1.2-.9,2-.9s1.5.3,2,.9c.5.6.8,1.2.8,2Z"/>
  <path class="st0" d="M127.5,33.2c0-.9.3-1.7,1-2.4.6-.7,1.5-1.1,2.5-1.1s1.1.1,1.5.3c1-1.7,1.6-3.7,1.6-6.1,0-7.5-6-12.1-12.9-12.1h-8.1v24.2h8.1c2.4,0,4.7-.5,6.6-1.5-.2-.4-.2-.8-.2-1.3ZM120.6,31.3h-1.9v-14.6h1.9c4.2,0,7.6,2.5,7.6,7.3s-3.4,7.3-7.6,7.3Z"/>
</svg>