<?xml version="1.0" encoding="UTF-8"?>
<svg id="Capa_1" xmlns="http://www.w3.org/2000/svg" version="1.1" viewBox="0 0 1709.3 529.8">
  <!-- Generator: Adobe Illustrator 30.2.1, SVG Export Plug-In . SVG Version: 2.1.1 Build 1)  -->
  <defs>
    <style>
      .st0 {
        fill: #fff;
      }
    </style>
  </defs>
  <path class="st0" d="M627.4,180.7c0,15.2,8.5,25.1,23.9,25.1s23.9-9.8,23.9-25.1v-51.7h4.2v51.9c0,17.4-10.2,28.9-28.1,28.9s-28-11.5-28-28.9v-51.9h4.1v51.7Z"/>
  <path class="st0" d="M713,207.9v-78.9h4.3l46.1,71.6h.2v-71.6h4.1v78.9h-4.3l-46.2-71.6h-.2v71.6h-4.1Z"/>
  <path class="st0" d="M803.1,207.9v-78.9h4.1v78.9h-4.1Z"/>
  <path class="st0" d="M863.6,207.9l-28.6-78.9h4.5l26.4,73.8h.2l26.8-73.8h4.5l-29.1,78.9h-4.7Z"/>
  <path class="st0" d="M969.3,207.9h-44.8v-78.9h44.8v3.8h-40.7v32.7h38.7v3.8h-38.7v34.7h40.7v3.9Z"/>
  <path class="st0" d="M1049.2,151c0,12.2-7.4,19-17.1,21.2l18.3,35.7h-4.8l-17.9-34.8h-23.8v34.8h-4.1v-78.9h25.6c14.7,0,23.8,8.9,23.8,22ZM1024.8,169.4c12.4,0,20.2-7,20.2-18.3s-7.8-18.3-20.2-18.3h-20.8v36.6h20.8Z"/>
  <path class="st0" d="M1079.9,188.1c.2,7.1,5.9,17.9,23,17.9s22.3-7.5,22.3-17.6-6.7-14.2-19.1-17.5l-9.8-2.6c-11.1-2.9-18.1-8.8-18.1-20s9.8-21,25.1-21,24.5,9,24.6,19.6h-4.2c-.2-7.1-5.9-15.8-20.4-15.8s-20.7,6.9-20.7,17.2,5.6,13.5,15.8,16.3l9.5,2.6c13.9,3.8,21.7,8.5,21.7,21.1s-11.2,21.7-27,21.7-26.8-12.9-26.8-21.7h4.2Z"/>
  <path class="st0" d="M1160.5,207.9v-78.9h4.1v78.9h-4.1Z"/>
  <path class="st0" d="M1220.6,129c24.8,0,35.4,15.3,35.4,39.4s-10.2,39.5-35.4,39.5h-20.7v-78.9h20.7ZM1204.1,204.1h16.6c21.9,0,31.2-13.8,31.2-35.6s-9.5-35.6-31.2-35.6h-16.6v71.2Z"/>
  <path class="st0" d="M1278.9,207.9l28.3-78.9h4.4l28.3,78.9h-4.4l-9.5-26.9h-33.3l-9.5,26.9h-4.3ZM1309.2,134.1l-15.3,43.4h30.8l-15.2-43.4h-.3Z"/>
  <path class="st0" d="M1387.4,129c24.8,0,35.4,15.3,35.4,39.4s-10.2,39.5-35.4,39.5h-20.7v-78.9h20.7ZM1370.9,204.1h16.6c21.9,0,31.2-13.8,31.2-35.6s-9.5-35.6-31.2-35.6h-16.6v71.2Z"/>
  <path class="st0" d="M635.4,300.3c0,21.5,9.1,33.4,25.1,33.4s22.7-9.1,23-22h21.8v2.2c0,23-19,38.9-45,38.9s-47.9-20-47.9-52.7v-13c0-32.9,17.3-53.1,47.9-53.1s45,16.4,45,40.2v2.1h-21.8c-.2-13.6-9.1-23.2-23-23.2s-25.1,12.1-25.1,33.9v13.3Z"/>
  <path class="st0" d="M795,350.6v-49.1h-48v49h-22.7v-114.4h22.7v46.5h48v-46.5h22.8v114.5h-22.7Z"/>
  <path class="st0" d="M831.1,350.6l38.4-114.5h26.6l38.2,114.5h-24.1l-9-29.4h-38.1l-9.1,29.4h-22.9ZM881.8,258l-14,46.3h28.9l-13.9-46.3h-1Z"/>
  <path class="st0" d="M948,350.6v-114.5h23.1l32.6,73.9h.7l32.7-73.9h22.9v114.5h-20.4v-75.6h-.9l-27.3,61.3h-14.8l-27.4-61.3h-.9v75.6h-20.2Z"/>
  <path class="st0" d="M1130.3,236.1c24.6,0,38.7,16.7,38.7,38.1s-14.2,37.9-38.9,37.9h-22.9v38.4h-22.6v-114.4h45.8ZM1107.1,294.4h13.6c15.8,0,25.2-4.6,25.2-20.1s-7.5-20.1-19.9-20.1h-18.9v40.2Z"/>
  <path class="st0" d="M1170.3,350.6l38.4-114.5h26.6l38.2,114.5h-24.1l-9-29.4h-38.2l-9.1,29.4h-22.9ZM1221,258l-14,46.3h28.9l-13.9-46.3h-1Z"/>
  <path class="st0" d="M1352.3,272.8c-1.4-11.8-9.9-19.8-23.5-19.8s-25.7,11.7-25.7,32.2v15c0,20.2,8,33.6,26.4,33.6s23.5-9,23.5-20.7v-7.3h-23.6v-16.9h45.1v22.8c0,22-16.1,41-45.4,41s-48.8-21.3-48.8-52.5v-15.2c0-30.8,17.6-51.1,48.6-51.1s44.5,17.5,45.4,38.8h-22.1Z"/>
  <path class="st0" d="M1394.3,350.6v-114.5h18.9l50.7,76.1h.8v-76.1h21.1v114.5h-18.8l-50.9-76.5h-.7v76.5h-21.1Z"/>
  <path class="st0" d="M1499.2,350.6l38.4-114.5h26.6l38.2,114.5h-24.1l-9-29.4h-38.2l-9.1,29.4h-22.9ZM1549.8,258l-14,46.3h28.9l-13.9-46.3h-1Z"/>
  <path class="st0" d="M1629.4,350.6v-95.5h-32.5v-18.9h87.7v18.9h-32.5v95.5h-22.6Z"/>
  <path class="st0" d="M259.3,513.8c-127.9,0-231.9-104-231.9-231.9V23.1h463.9v258.8c0,127.9-104.1,231.9-232,231.9ZM33.8,29.6v252.4c0,124.3,101.2,225.5,225.5,225.5s225.5-101.2,225.5-225.5V29.6H33.8Z"/>
  <path class="st0" d="M357.6,469.5l-29.4,12.6c10.1-3.5,19.9-7.7,29.4-12.6Z"/>
  <path class="st0" d="M199.7,194v45.1c.8-9,3.7-17.6,8.5-25.3l-8.5-19.8Z"/>
  <path class="st0" d="M253.5,287.6c11.5,0,17.7-8.9,17.7-20.6h31.8v-26h-31.8c0-11.9-6.2-20.8-17.7-20.8s-18.9,9.7-18.9,28v11.6c0,18.1,6.9,27.8,18.9,27.8Z"/>
  <path class="st0" d="M357.4,239.8l-19.6-45.8c-.5.5-.2,45.8-.2,45.8"/>
  <g>
    <path class="st0" d="M253.5,220.2c-12,0-18.9,9.8-18.9,28v11.5c0,18.1,6.9,27.8,18.9,27.8s17.7-8.9,17.7-20.6h31.8s0-26,0-26h-31.8c0-11.9-6.2-20.8-17.7-20.8Z"/>
    <path class="st0" d="M194,43.5v67.2l-38.8-17.3-38.8,17.3V43.5H47v237.8c0,94.7,62,174.8,147.7,202.1,2.3.8,4.7,1.5,7,2.1h0c41.5,11.8,85.6,10.6,126.4-3.4l29.4-12.6c55.6-29.2,95.5-81.4,108.9-142.7.4-1.7.8-3.4,1.1-5h0c2.6-13.4,3.9-27,3.9-40.5V43.5H194ZM409.6,313.7h-34.6v-46.3h-37.3v46.4h-34.7v-32.3c-4.5,21.1-23.9,34.4-49.9,34.4s-50.3-18.2-53.5-47.2v5.2c0,24.7-17,42.4-45.4,42.4s-45.3-17.6-45.3-42.4v-79.9h15.2v77.9c0,18.6,11.8,30.6,30.2,30.6s30.3-12,30.3-30.6v-78h15.2v45.1c3.2-29,21.9-47.1,53.5-47.1s45.4,13.3,49.9,34.6v-32.5h34.7v45.8h37.3v-45.8h34.6v119.7Z"/>
  </g>
</svg>